<?xml version="1.0" encoding="UTF-8"?>
<svg version="1.1" xmlns="http://www.w3.org/2000/svg" width="593" height="855">
<path d="M0 0 C195.69 0 391.38 0 593 0 C593 282.15 593 564.3 593 855 C397.31 855 201.62 855 0 855 C0 572.85 0 290.7 0 0 Z " fill="#FEFEFE" transform="translate(0,0)"/>
<path d="M0 0 C2.71613883 -0.00964881 5.43150035 -0.04074196 8.14746094 -0.07226562 C19.70566729 -0.14187878 30.72878679 0.86864315 42.10931396 2.86712646 C45.01567078 3.3739171 47.9309394 3.81839273 50.84667969 4.26757812 C68.27385285 7.12057749 68.27385285 7.12057749 75.82714844 10.25976562 C78.55235091 11.36303308 81.29346675 12.13388536 84.12402344 12.92773438 C123.44523934 24.95157725 162.33138602 50.42999481 188.10839844 82.60742188 C189.86632214 84.76953971 191.67233533 86.82014239 193.56152344 88.86523438 C223.35519052 122.66825805 244.47260145 171.14513421 246.07324219 216.28320312 C246.05034513 219.17066929 246.05034513 219.17066929 247.24902344 221.24023438 C249.9991784 255.44078213 240.99825966 288.27064329 227.24902344 319.24023438 C226.8584375 320.12839844 226.46785156 321.0165625 226.06542969 321.93164062 C220.20123103 335.14050777 213.23905082 347.2177081 205.24902344 359.24023438 C203.9607816 361.20346022 202.67304402 363.16701703 201.38574219 365.13085938 C194.25298018 375.96304739 186.91569157 386.60591899 179.26855469 397.08007812 C171.85996841 407.24292643 164.88962501 417.69105539 158.11206055 428.28271484 C155.08964304 432.99401729 151.94211483 437.57979185 148.58886719 442.06445312 C146.97446781 444.68608711 146.1945914 447.31453587 145.24902344 450.24023438 C144.32217861 452.13099783 143.36255385 454.00597769 142.37402344 455.86523438 C139.75668397 460.99165352 137.83648047 466.09446903 136.10839844 471.57617188 C135.03559489 474.90186289 133.65229921 478.04076562 132.24902344 481.24023438 C128.81501096 489.68525737 128.81501096 489.68525737 126.06152344 498.36523438 C125.24902344 501.24023438 125.24902344 501.24023438 123.24902344 504.24023438 C122.73156325 506.75023447 122.73156325 506.75023447 122.46777344 509.57226562 C122.28794922 511.14137695 122.28794922 511.14137695 122.10449219 512.7421875 C121.9871875 513.83466797 121.86988281 514.92714844 121.74902344 516.05273438 C121.51536506 518.20572939 121.27595063 520.35810894 121.03027344 522.50976562 C120.92779297 523.46471924 120.8253125 524.41967285 120.71972656 525.40356445 C120.24902344 528.24023438 120.24902344 528.24023438 118.24902344 534.24023438 C98.77902344 534.24023438 79.30902344 534.24023438 59.24902344 534.24023438 C59.16880582 511.4227784 59.16880582 511.4227784 59.15136719 501.60742188 C59.13946661 494.94104786 59.12547262 488.2747294 59.09814453 481.60839844 C59.07622382 476.22671911 59.06441476 470.84509947 59.05926895 465.46337891 C59.05560739 463.42235374 59.04845864 461.3813314 59.03756332 459.34033203 C58.95467187 443.15102809 60.22524764 427.86312757 63.62402344 411.99023438 C63.95490967 410.43115356 63.95490967 410.43115356 64.29248047 408.84057617 C65.58713287 402.88920044 67.00733194 397.08942905 69.11230469 391.36523438 C70.03312598 388.83376691 70.86664083 386.31064428 71.66699219 383.74023438 C75.8606282 370.41459001 81.19949396 357.77923162 86.96826172 345.06494141 C97.91559878 320.92070011 106.68216181 296.68968221 98.21386719 269.97460938 C97.01983752 266.9799369 95.70356479 264.11672231 94.24902344 261.24023438 C93.84039062 260.41265625 93.43175781 259.58507812 93.01074219 258.73242188 C86.64284047 247.0485432 76.93570418 237.48741632 65.24902344 231.24023438 C64.30414063 230.72074219 63.35925781 230.20125 62.38574219 229.66601562 C42.08992328 218.99390952 20.92617817 215.90715621 -1.75097656 215.74023438 C-2.7705394 215.72456924 -2.7705394 215.72456924 -3.81069946 215.70858765 C-14.44666769 215.58069542 -23.60343734 217.31430879 -33.75097656 220.24023438 C-35.27421165 220.64204417 -36.79760054 221.0432725 -38.32128906 221.44335938 C-56.40428656 226.76890149 -73.28576412 237.16324134 -83.75097656 253.24023438 C-84.76804688 254.779375 -84.76804688 254.779375 -85.80566406 256.34960938 C-93.45239779 268.45271773 -96.05538481 280.49395567 -96.18847656 294.67773438 C-96.19878906 295.58910156 -96.20910156 296.50046875 -96.21972656 297.43945312 C-96.13874526 303.59403224 -94.90240595 308.5134034 -92.75097656 314.24023438 C-92.27356645 315.75666517 -91.80630253 317.27632321 -91.34863281 318.79882812 C-86.31722753 334.96503864 -79.34821323 350.21852765 -71.70410156 365.31054688 C-52.42405803 404.13595564 -52.42719799 445.90767828 -52.61364746 488.14520264 C-52.63807448 494.27723177 -52.64695102 500.40930235 -52.65855408 506.54136658 C-52.67770565 515.77440601 -52.71612024 525.00718098 -52.75097656 534.24023438 C-72.22097656 534.24023438 -91.69097656 534.24023438 -111.75097656 534.24023438 C-113.03454103 529.74775872 -114.03588177 525.83778297 -114.68774414 521.29248047 C-121.87559394 471.3304816 -150.33862052 427.51815465 -179.58300781 387.59179688 C-183.18561075 382.6676704 -186.69098644 377.67685424 -190.18847656 372.67773438 C-190.75598633 371.86828369 -191.32349609 371.05883301 -191.90820312 370.22485352 C-198.95775141 360.13516147 -205.54086566 349.86598412 -211.75097656 339.24023438 C-212.16428223 338.53688965 -212.57758789 337.83354492 -213.00341797 337.10888672 C-225.81639831 315.17128685 -235.72913512 291.60648245 -238.75097656 266.24023438 C-238.84378906 265.48057373 -238.93660156 264.72091309 -239.03222656 263.93823242 C-241.85841201 237.45042368 -240.75371601 210.1717675 -234.75097656 184.24023438 C-234.49928711 183.1487207 -234.24759766 182.05720703 -233.98828125 180.93261719 C-226.4319175 149.32895748 -212.29059651 118.94532452 -191.16894531 94.09179688 C-189.25939893 91.83982779 -187.39635743 89.5682025 -185.55175781 87.26367188 C-184.98577881 86.55807129 -184.4197998 85.8524707 -183.83666992 85.12548828 C-182.73218949 83.74689747 -181.62997131 82.36648975 -180.53051758 80.98388672 C-175.80714993 75.12176475 -170.66946041 69.75532895 -164.93847656 64.86523438 C-162.77505088 63.0108695 -160.65148221 61.14593883 -158.58300781 59.18554688 C-151.23837632 52.27150517 -143.17627832 46.73283522 -134.75097656 41.24023438 C-134.06535645 40.78890137 -133.37973633 40.33756836 -132.67333984 39.87255859 C-92.82709678 13.84918262 -47.44340532 0.10133871 0 0 Z " fill="#FEFEFE" transform="translate(295.7509765625,69.759765625)"/>
<path d="M0 0 C1.70051262 -0.00855011 1.70051262 -0.00855011 3.43537903 -0.01727295 C5.83150309 -0.02668374 8.22763987 -0.03324125 10.6237793 -0.03710938 C14.21362283 -0.04672524 17.80287077 -0.0777498 21.39257812 -0.109375 C35.88994275 -0.1758715 49.78949125 0.79651217 64.08203125 3.203125 C65.23018311 3.38166016 66.37833496 3.56019531 67.5612793 3.74414062 C79.97754554 5.71048393 92.09593678 8.41950142 104.08203125 12.203125 C105.04061035 12.5031543 105.99918945 12.80318359 106.98681641 13.11230469 C140.79176419 23.84891297 171.89917384 40.35253549 199.08203125 63.203125 C199.58734375 63.6249707 200.09265625 64.04681641 200.61328125 64.48144531 C225.58782862 85.37701295 225.58782862 85.37701295 235.08203125 97.203125 C235.96712839 98.27630528 236.85258043 99.34919289 237.73828125 100.421875 C266.42771075 135.44692613 288.69046384 175.62289995 298.08203125 220.203125 C298.26507812 221.00492188 298.448125 221.80671875 298.63671875 222.6328125 C302.28900599 239.32095572 302.48669303 256.11084365 302.50756836 273.11938477 C302.51396821 277.10154188 302.5687002 281.08261247 302.61914062 285.06445312 C302.9891261 344.27703917 275.70329648 394.69458454 242.05566406 441.64697266 C231.34987792 456.58925082 220.91300907 471.66775264 211.08203125 487.203125 C210.67146484 487.85023438 210.26089844 488.49734375 209.83789062 489.1640625 C199.94320086 504.87420026 190.72669688 521.41960335 184.85131836 539.07397461 C184.26303955 540.70214963 183.60779638 542.30627349 182.92407227 543.89672852 C178.93119302 553.39449918 177.36884822 562.77222924 175.89453125 572.890625 C175.40529154 576.1243489 174.90924492 579.35702514 174.4140625 582.58984375 C174.29786057 583.35391037 174.18165863 584.11797699 174.06193542 584.90519714 C171.54016873 601.39403676 171.54016873 601.39403676 167.08203125 607.203125 C166.69015625 608.04875 166.29828125 608.894375 165.89453125 609.765625 C162.63907161 614.14365694 157.82583763 616.71766722 152.46258748 617.66657948 C149.51954068 617.84466479 146.61323307 617.86987434 143.66493225 617.83804321 C142.54540474 617.84584317 141.42587723 617.85364312 140.27242464 617.86167943 C136.53682762 617.88155588 132.80225422 617.86585053 129.06665039 617.85009766 C126.38204492 617.85687574 123.69750897 617.86559963 121.01292419 617.87664795 C114.48750465 617.89883545 107.9623733 617.89409916 101.43694264 617.87958474 C96.13115493 617.86827376 90.82544774 617.86676962 85.51965141 617.87220383 C84.3851379 617.87335307 84.3851379 617.87335307 83.22770492 617.87452554 C81.69099802 617.87612424 80.15429114 617.87774531 78.61758428 617.8793885 C64.22073366 617.89363309 49.82404243 617.87727408 35.42721795 617.85038666 C23.08722237 617.82805355 10.74746203 617.83192577 -1.5925293 617.85498047 C-15.9377546 617.88176916 -30.28284028 617.89225515 -44.6280871 617.87691915 C-46.15931576 617.87532648 -47.69054444 617.87375463 -49.22177315 617.87220383 C-50.35172945 617.87104676 -50.35172945 617.87104676 -51.50451316 617.86986632 C-56.80040056 617.86555817 -62.09619905 617.87281682 -67.39207268 617.88460159 C-73.85119335 617.89865952 -80.31001042 617.89475815 -86.76909655 617.86819787 C-90.06165441 617.85510263 -93.35360549 617.85254729 -96.64617538 617.86644363 C-100.22257995 617.88014429 -103.79757115 617.86292538 -107.37388611 617.83804321 C-108.40473845 617.84919682 -109.43559079 617.86035043 -110.49768108 617.87184203 C-118.30343431 617.7667883 -125.0864303 615.84922589 -130.86237663 610.35282195 C-137.16491061 603.16257736 -137.04027217 593.42054917 -137.671875 584.3203125 C-137.6939898 582.2201919 -137.6939898 582.2201919 -138.91796875 581.203125 C-139.34780805 579.16834615 -139.73443298 577.12444347 -140.10546875 575.078125 C-149.73996525 525.43793476 -175.33003276 483.45656044 -204.875 443.16796875 C-232.75247028 405.05104002 -254.90779056 367.07358964 -263.91796875 320.203125 C-264.18697998 318.8423584 -264.18697998 318.8423584 -264.46142578 317.45410156 C-267.23967802 302.66066712 -267.19867277 287.76441414 -267.23046875 272.765625 C-267.23423523 271.77816284 -267.23800171 270.79070068 -267.24188232 269.77331543 C-267.27460286 252.83533462 -266.16417487 236.67221596 -261.91796875 220.203125 C-261.50163493 218.47679596 -261.08636258 216.75021075 -260.671875 215.0234375 C-250.07655142 171.70922161 -228.51225853 133.13822537 -199.91796875 99.203125 C-198.89830098 97.97667599 -197.87876809 96.75011483 -196.859375 95.5234375 C-188.00513073 84.95079911 -178.52904694 75.03680316 -167.91796875 66.203125 C-167.16265869 65.5531958 -167.16265869 65.5531958 -166.39208984 64.89013672 C-129.76049886 33.39762266 -85.56049687 15.03887528 -38.91796875 4.203125 C-37.65919922 3.9105481 -37.65919922 3.9105481 -36.375 3.61206055 C-32.00715824 2.61737244 -27.74164397 1.86048831 -23.27796936 1.43814087 C-21.82626454 1.29357579 -20.37586173 1.13381315 -18.92875671 0.9487915 C-12.61419124 0.14583922 -6.36000864 0.0253625 0 0 Z M-34.60546875 46.828125 C-35.69214844 47.08609863 -36.77882812 47.34407227 -37.8984375 47.60986328 C-67.86885273 54.95937917 -97.74790501 67.13802862 -122.91796875 85.203125 C-124.36262476 86.20277232 -125.80799658 87.20138561 -127.25390625 88.19921875 C-135.38342192 93.87014665 -142.77370678 99.56769862 -149.6015625 106.78125 C-151.67957896 108.95388104 -153.80612765 110.89650126 -156.10546875 112.828125 C-163.69691461 119.33728734 -169.76607593 127.36827444 -175.91796875 135.203125 C-176.66691406 136.12222656 -177.41585937 137.04132813 -178.1875 137.98828125 C-198.74340859 163.72467731 -212.8622798 194.07424114 -219.91796875 226.203125 C-220.14790527 227.22615723 -220.3778418 228.24918945 -220.61474609 229.30322266 C-226.17828468 254.95878209 -227.00313715 282.11406438 -223.91796875 308.203125 C-223.84626465 308.89639893 -223.77456055 309.58967285 -223.70068359 310.30395508 C-221.54241382 329.87434138 -214.36701729 349.09599504 -204.94921875 366.30371094 C-203.83693427 368.35237885 -202.76572912 370.41934313 -201.69921875 372.4921875 C-194.83082371 385.78633129 -187.0721264 398.20833924 -178.28173828 410.3125 C-175.85907829 413.67108915 -173.48590562 417.06454883 -171.10546875 420.453125 C-168.01160086 424.85465378 -164.90150704 429.24134243 -161.72265625 433.58203125 C-153.70415983 444.53341479 -146.11992174 455.69687979 -138.91796875 467.203125 C-138.11359375 468.48630615 -138.11359375 468.48630615 -137.29296875 469.79541016 C-117.68284988 501.34955276 -103.12368015 534.91148987 -98.27734375 571.9375 C-98.03056518 574.22923938 -98.03056518 574.22923938 -96.91796875 576.203125 C-77.44796875 576.203125 -57.97796875 576.203125 -37.91796875 576.203125 C-37.85957983 560.97071033 -37.85957983 560.97071033 -37.8203125 545.73828125 C-37.80846106 539.50500995 -37.79460522 533.27179863 -37.76708984 527.03857422 C-37.58379643 484.33747556 -38.18504165 441.67219385 -58.97265625 402.94921875 C-67.03911425 387.7954931 -73.26292967 371.61592459 -78.27539062 355.22363281 C-78.80797697 353.54898062 -79.43186247 351.9036833 -80.078125 350.26953125 C-84.31836857 334.78771172 -80.97071118 315.67534107 -73.23046875 301.890625 C-60.45213038 280.59339438 -42.51185857 268.52388237 -18.91796875 262.203125 C-17.73912109 261.8637793 -16.56027344 261.52443359 -15.34570312 261.17480469 C-5.69561838 258.53246106 3.03599448 257.54619751 13.08203125 257.703125 C13.79103577 257.70899628 14.50004028 257.71486755 15.23052979 257.72091675 C44.46187197 258.00234081 74.90614595 264.08913859 96.39453125 285.35546875 C105.81969512 295.34230662 113.09429529 307.44386176 115.08203125 321.203125 C115.19160156 321.85925781 115.30117188 322.51539063 115.4140625 323.19140625 C119.03825983 348.85072338 109.69998591 370.72593796 99.07592773 393.55517578 C93.97402833 404.52333059 89.43654218 415.46440322 86.015625 427.08984375 C85.09508542 430.15959289 84.07088633 433.17601586 83.01953125 436.203125 C73.01177736 466.00056118 73.54734837 496.63215351 73.80737305 527.63189697 C73.85628566 534.09598982 73.87399004 540.56024101 73.89718628 547.02446747 C73.93545246 556.75100481 74.0122927 566.47653418 74.08203125 576.203125 C93.55203125 576.203125 113.02203125 576.203125 133.08203125 576.203125 C134.52424984 571.87646923 135.38341822 568.90243715 135.828125 564.54296875 C136.00118164 562.9815918 136.00118164 562.9815918 136.17773438 561.38867188 C136.40596318 559.21984618 136.62990875 557.05056556 136.84960938 554.88085938 C136.96626953 553.84123047 137.08292969 552.80160156 137.203125 551.73046875 C137.34899048 550.31882446 137.34899048 550.31882446 137.49780273 548.87866211 C138.16300966 545.83227571 139.40025943 543.80902799 141.08203125 541.203125 C141.78728623 539.18121529 142.4302472 537.13682551 143.01953125 535.078125 C147.26884109 520.75697771 147.26884109 520.75697771 150.64453125 514.140625 C151.89539266 511.5845169 152.60338921 509.42780462 153.33203125 506.703125 C156.17673487 496.79157869 161.5574263 487.83492949 167.08203125 479.203125 C167.48470215 478.56922852 167.88737305 477.93533203 168.30224609 477.28222656 C177.57056281 462.73100649 187.21724228 448.44689627 197.39453125 434.515625 C204.64150842 424.5741312 211.45789535 414.35537281 218.20117188 404.06738281 C219.91570929 401.4564076 221.64626034 398.85678137 223.37890625 396.2578125 C248.61525065 357.92926077 265.80734747 309.53064373 262.08203125 263.203125 C261.75203125 262.543125 261.42203125 261.883125 261.08203125 261.203125 C260.97286472 259.01676196 260.89591897 256.82877926 260.83203125 254.640625 C258.83934894 214.76380808 240.60589889 173.97931717 217.08203125 142.203125 C216.65535156 141.62095215 216.22867187 141.0387793 215.7890625 140.43896484 C210.68640275 133.5091604 205.24251978 126.98776616 199.375 120.68359375 C197.41935059 118.56802752 195.55637244 116.41069209 193.70703125 114.203125 C159.97569945 75.70880422 108.58796928 53.76984273 59.26953125 45.078125 C58.30289551 44.90732422 57.33625977 44.73652344 56.34033203 44.56054688 C54.93436768 44.31788086 54.93436768 44.31788086 53.5 44.0703125 C52.67266357 43.92706543 51.84532715 43.78381836 50.99291992 43.63623047 C43.86894229 42.57626768 36.88564679 42.04501865 29.68359375 42.03515625 C28.80915619 42.03182785 27.93471863 42.02849945 27.03378296 42.02507019 C25.19000773 42.02003737 23.3462235 42.01766073 21.50244141 42.01782227 C18.74886079 42.01565788 15.99569633 41.99752407 13.2421875 41.97851562 C-2.9594297 41.92507044 -18.81388775 43.01165446 -34.60546875 46.828125 Z " fill="#0F0D0B" transform="translate(280.91796875,27.796875)"/>
<path d="M0 0 C7.63616266 5.5440633 14.50648496 13.09425062 16.28125 22.65625 C16.72104708 29.24297842 16.36752629 35.36515913 14.28125 41.65625 C13.92804688 42.73003906 13.57484375 43.80382812 13.2109375 44.91015625 C11.08637399 51.1034593 8.75519583 56.9850377 5.7265625 62.78515625 C-2.58309926 79.29218705 -11.01121149 97.48400303 -15.16015625 115.51171875 C-15.85888924 118.19426707 -16.75524539 120.78483659 -17.65625 123.40625 C-20.86406357 132.91088279 -22.98018819 142.53686102 -24.71704102 152.40136719 C-25.61801184 157.45477367 -25.61801184 157.45477367 -26.71875 159.65625 C-26.82009637 161.06834922 -26.86083629 162.48504144 -26.87023926 163.90074158 C-26.87858292 164.79105576 -26.88692657 165.68136993 -26.89552307 166.59866333 C-26.89970749 167.57793793 -26.90389191 168.55721252 -26.90820312 169.56616211 C-26.91649643 170.59551376 -26.92478973 171.62486542 -26.93333435 172.68540955 C-26.95076163 174.92585126 -26.96592106 177.16631148 -26.97911072 179.40678215 C-27.00009087 182.94893597 -27.02711771 186.49099693 -27.05578613 190.03309631 C-27.115559 197.55327877 -27.16767649 205.07350409 -27.21875 212.59375 C-27.27792154 221.30194386 -27.34018647 230.01009199 -27.41062927 238.71820259 C-27.43725719 242.21421477 -27.45804056 245.7102314 -27.4786377 249.20628357 C-27.49523803 251.34317241 -27.51210964 253.48005916 -27.52929688 255.61694336 C-27.53348129 256.59419373 -27.53766571 257.57144409 -27.54197693 258.57830811 C-27.55032059 259.47144211 -27.55866425 260.36457611 -27.56726074 261.28477478 C-27.57499134 262.44925093 -27.57499134 262.44925093 -27.58287811 263.63725185 C-27.71875 265.65625 -27.71875 265.65625 -28.71875 268.65625 C-38.61875 268.65625 -48.51875 268.65625 -58.71875 268.65625 C-58.75613281 263.98339844 -58.79351562 259.31054688 -58.83203125 254.49609375 C-59.01334118 214.63458172 -59.01334118 214.63458172 -61.09375 174.84375 C-61.15092194 174.11364716 -61.20809387 173.38354431 -61.26699829 172.63131714 C-62.34227212 159.32081446 -63.83978953 145.56317363 -68.04467773 132.84765625 C-68.73564116 130.60133691 -69.16479951 128.40824129 -69.56640625 126.09375 C-70.70577666 120.24552059 -72.58771765 114.75673436 -74.59375 109.15625 C-74.93277344 108.18816406 -75.27179688 107.22007812 -75.62109375 106.22265625 C-78.70731081 97.48033037 -82.03756018 88.89988881 -86.03125 80.53125 C-89.7596326 72.643663 -93.27561783 64.67196283 -96.71875 56.65625 C-97.43417969 54.99335938 -97.43417969 54.99335938 -98.1640625 53.296875 C-99.38000503 50.42812437 -100.55939794 47.54826009 -101.71875 44.65625 C-102.03972656 43.89183594 -102.36070312 43.12742187 -102.69140625 42.33984375 C-106.19952498 33.21873505 -105.67160005 24.17060589 -101.9765625 15.19140625 C-98.33515842 7.85205454 -93.46963909 3.16543165 -86.71875 -1.34375 C-86.12578125 -1.77429688 -85.5328125 -2.20484375 -84.921875 -2.6484375 C-60.94256301 -19.14702396 -23.61495809 -15.0277006 0 0 Z " fill="#FEFEFE" transform="translate(342.71875,335.34375)"/>
<path d="M0 0 C5.24558402 0.00257471 10.4911665 0.00017197 15.7367506 -0.00138617 C24.54162445 -0.00319385 33.34648986 -0.00083933 42.15136242 0.00395441 C52.24533653 0.00938749 62.3392904 0.00763558 72.43326402 0.00212801 C81.18577883 -0.00245158 89.93828766 -0.00303007 98.69080329 -0.00043333 C103.88032947 0.00110397 109.06984623 0.00139515 114.25937176 -0.00196981 C126.96654719 -0.00886205 139.67268101 0.02028298 152.37938976 0.1343255 C153.15569933 0.14076484 153.9320089 0.14720417 154.73184299 0.15383863 C159.66209926 0.19788347 164.5897929 0.28326945 169.5190382 0.39262629 C170.69685989 0.40621117 171.87468159 0.41979605 173.08819485 0.43379259 C181.48085595 0.67696897 188.61603574 2.17168511 195.31688976 7.4468255 C200.79653334 14.58696713 201.37717037 21.26898742 200.37938976 30.1343255 C198.00011819 35.48768654 193.23302833 39.8533743 188.37938976 43.1343255 C183.50886877 44.5371955 178.49136052 44.28248203 173.46833324 44.28149652 C172.46247935 44.28517321 171.45662545 44.2888499 170.42029113 44.292638 C167.04573095 44.30366176 163.67120157 44.30751646 160.29662609 44.31132746 C157.87864618 44.31759304 155.46066722 44.32423993 153.04268932 44.33124018 C145.78474749 44.35045425 138.52680822 44.36106578 131.26884869 44.36996797 C127.84770924 44.3743558 124.42657132 44.37972127 121.00543308 44.38495684 C109.62777592 44.40196455 98.2501197 44.41645823 86.87245178 44.42370558 C83.92220909 44.42561534 80.97196641 44.4275357 78.02172375 44.42949152 C76.92187689 44.43021713 76.92187689 44.43021713 75.79981091 44.4309574 C63.92459381 44.439256 52.0494775 44.46459204 40.1743044 44.4970722 C27.97222191 44.53017349 15.77019058 44.54815705 3.56806296 44.55134982 C-3.278936 44.55351191 -10.12578792 44.56221649 -16.97274303 44.58781099 C-23.41516134 44.61183837 -29.85738707 44.61532443 -36.29984379 44.60504961 C-38.66127813 44.60455418 -41.0227255 44.6108767 -43.38411999 44.62460566 C-46.6146074 44.64233313 -49.84414683 44.63521344 -53.07463551 44.6220727 C-54.46742333 44.63852657 -54.46742333 44.63852657 -55.88834828 44.65531284 C-62.98102272 44.58593334 -70.17123876 43.28022261 -75.57160252 38.35498077 C-80.94581208 32.38524809 -82.19229719 27.56144686 -82.06592274 19.53666925 C-81.2792542 13.52624561 -78.48826189 8.72002579 -73.99170399 4.6655755 C-68.34344161 0.70188261 -62.78490059 0.82471859 -56.16455555 0.58012629 C-55.03143562 0.53801586 -53.8983157 0.49590544 -52.7308588 0.45251894 C-35.16081243 -0.12145787 -17.57720726 -0.01136783 0 0 Z " fill="#100E0C" transform="translate(239.62061023712158,673.865674495697)"/>
<path d="M0 0 C1.39785507 -0.00445668 1.39785507 -0.00445668 2.82394964 -0.0090034 C5.96608218 -0.01771808 9.10817674 -0.01920099 12.25032043 -0.02069092 C14.49538759 -0.02531719 16.74045396 -0.03034159 18.98551941 -0.03573608 C25.09931207 -0.04888186 31.21309374 -0.05530947 37.32689834 -0.05974674 C41.14451163 -0.06267442 44.96212189 -0.06677868 48.77973366 -0.07125092 C59.34919579 -0.08336387 69.91865529 -0.09374413 80.48812389 -0.09712601 C81.50325159 -0.09745536 81.50325159 -0.09745536 82.53888692 -0.09779136 C83.55645493 -0.09811878 83.55645493 -0.09811878 84.59457988 -0.09845281 C85.9692473 -0.09889627 87.34391473 -0.09934284 88.71858215 -0.09979248 C89.74140756 -0.10012463 89.74140756 -0.10012463 90.78489611 -0.10046348 C101.82813098 -0.10440951 112.87129978 -0.12185637 123.91450914 -0.145152 C135.25202569 -0.16887535 146.58949795 -0.18107045 157.92704374 -0.18249393 C164.29274222 -0.18354294 170.6583476 -0.18947123 177.02402306 -0.20731354 C183.01332218 -0.22377343 189.00245803 -0.22595975 194.9917717 -0.21717453 C197.18997827 -0.216403 199.38819355 -0.22076209 201.5863781 -0.23063278 C204.58805387 -0.24332064 207.58914865 -0.23749236 210.59082031 -0.22705078 C211.46009334 -0.23510719 212.32936637 -0.24316359 213.22498101 -0.25146413 C220.75291361 -0.19025015 226.57450301 1.75591915 232.11286926 7.14044189 C235.99631058 13.63791877 235.90294108 19.75765969 235.11286926 27.14044189 C233.42536926 30.70294189 233.42536926 30.70294189 231.11286926 33.14044189 C230.28786926 34.04794189 229.46286926 34.95544189 228.61286926 35.89044189 C225.20841497 38.95445076 222.64511039 40.38917198 218.04544258 40.39491749 C217.2399976 40.40074968 216.43455261 40.40658188 215.60470021 40.4125908 C214.72552618 40.40881148 213.84635216 40.40503215 212.9405365 40.40113831 C212.00213515 40.40496385 211.0637338 40.4087894 210.09689605 40.41273087 C206.94477455 40.42306978 203.7928349 40.419067 200.64070129 40.4151001 C198.38386364 40.41944609 196.12702746 40.42462886 193.87019348 40.43058777 C187.73384297 40.44400156 181.59755397 40.44455375 175.46119165 40.44202447 C170.34177524 40.4409563 165.22237135 40.44583421 160.10295761 40.45062989 C147.33574197 40.46236873 134.56857092 40.46149531 121.8013557 40.45507308 C110.71553543 40.44990478 99.62980305 40.46115651 88.54400016 40.4801713 C77.16008875 40.49954764 65.77623103 40.50751454 54.39229858 40.50404805 C48.00151813 40.50223309 41.61081817 40.50489258 35.22005081 40.51876259 C29.21019885 40.53131724 23.20052302 40.52941911 17.19067383 40.5163517 C14.98398657 40.51398117 12.77728701 40.5167376 10.57061386 40.52497482 C7.55992672 40.53540352 4.54983483 40.5273725 1.53916931 40.5146637 C0.66445673 40.52203798 -0.21025585 40.52941227 -1.11147487 40.53701001 C-6.94126897 40.48518479 -11.23428992 39.5325334 -15.71525574 35.49200439 C-16.18447449 34.92223877 -16.65369324 34.35247314 -17.13713074 33.76544189 C-17.61666199 33.20083252 -18.09619324 32.63622314 -18.59025574 32.05450439 C-22.58118408 26.16427883 -22.62841361 20.03718762 -21.88713074 13.14044189 C-17.4018708 3.45228042 -10.04006194 -0.00988105 0 0 Z " fill="#0E0B09" transform="translate(192.8871307373047,746.8595581054688)"/>
<path d="M0 0 C53.13 0 106.26 0 161 0 C161.33 1.32 161.66 2.64 162 4 C147.9600242 24.84723679 119.42717115 35.33323284 96 40 C71.55701686 44.28824266 45.60324433 39.6256133 24.87109375 25.93359375 C16.05958405 19.511646 6.30312271 11.97897669 0 3 C0 2.01 0 1.02 0 0 Z " fill="#0E0B09" transform="translate(218,813)"/>
<path d="M0 0 C1.92932168 2.72374826 1.99087275 4.1734178 1.8125 7.5625 C1.55942304 9.04480792 1.2864318 10.52377456 1 12 C0.78923828 13.39798828 0.78923828 13.39798828 0.57421875 14.82421875 C-0.86276107 22.14597308 -0.86276107 22.14597308 -4.0234375 24.51953125 C-6.32862332 25.54193094 -8.58023898 26.2965811 -11 27 C-11.73476563 27.34804688 -12.46953125 27.69609375 -13.2265625 28.0546875 C-17.13097357 29.38548677 -20.90024776 29.42606344 -25 29.5625 C-26.58346645 29.62290822 -28.16681087 29.68662071 -29.75 29.75390625 C-30.79414062 29.78979858 -30.79414062 29.78979858 -31.859375 29.82641602 C-34.02974586 29.95115458 -34.02974586 29.95115458 -36.22283936 30.50672913 C-39.39988522 31.0710264 -42.34798068 31.09748763 -45.57519531 31.06591797 C-46.88715881 31.05615936 -48.19912231 31.04640076 -49.55084229 31.03634644 C-50.59571178 31.02530191 -50.59571178 31.02530191 -51.66168976 31.01403427 C-53.85728721 30.99189342 -56.05279679 30.97788985 -58.24847412 30.96633911 C-64.489176 30.93286622 -70.72973337 30.89135607 -76.97021484 30.82861328 C-80.79500711 30.79074075 -84.61965073 30.76787379 -88.44460297 30.75430679 C-89.89415377 30.74630709 -91.34368593 30.73277666 -92.79312897 30.71337509 C-102.1833076 30.52846237 -102.1833076 30.52846237 -111.27246094 32.64111328 C-112.50254883 33.0895459 -113.73263672 33.53797852 -115 34 C-115.99 33.34 -116.98 32.68 -118 32 C-127.15040891 29.26691356 -136.83884272 29.72427511 -146.28515625 29.76953125 C-147.95267196 29.77072735 -149.62018835 29.77117531 -151.28770447 29.7709198 C-154.77151759 29.77247604 -158.25522672 29.7806931 -161.73901367 29.79418945 C-166.15034083 29.8110845 -170.56155324 29.81500568 -174.97290897 29.81424427 C-178.41612291 29.81451969 -181.85931298 29.82006094 -185.30251884 29.82724571 C-186.92600767 29.83037515 -188.54949913 29.83238597 -190.1729908 29.83313942 C-200.15453212 29.84283851 -210.07508772 30.14296982 -220.0375824 30.7688446 C-232.54979143 31.49876884 -244.82943626 30.68860197 -257.30786133 29.71166992 C-272.69541224 28.52622498 -272.69541224 28.52622498 -288 30 C-288.99 28.68 -289.98 27.36 -291 26 C-290.1354627 25.99967395 -290.1354627 25.99967395 -289.25345999 25.99934131 C-255.08278456 25.9858212 -220.91224514 25.9463193 -186.74164591 25.87314438 C-182.63741602 25.86437778 -178.5331857 25.85582794 -174.42895508 25.84741211 C-173.2033536 25.84489352 -173.2033536 25.84489352 -171.95299249 25.84232404 C-158.72855304 25.81566475 -145.50415694 25.80655973 -132.27969337 25.80395857 C-118.7070104 25.80089756 -105.13445261 25.77893373 -91.56182617 25.73947543 C-83.18884292 25.7157277 -74.81610968 25.70666941 -66.44309741 25.71648689 C-60.69896566 25.72180858 -54.95505765 25.70874512 -49.2109896 25.6813371 C-45.89837299 25.66607025 -42.58635786 25.66153021 -39.27371216 25.67340279 C-35.67676602 25.68501775 -32.08122711 25.66591358 -28.48439026 25.63923645 C-27.444486 25.64990971 -26.40458174 25.66058297 -25.33316523 25.67157966 C-18.48033347 25.57687009 -13.54356137 24.12777032 -8 20 C-6.08333333 17.75 -6.08333333 17.75 -5 15 C-4.66355469 14.39027344 -4.32710938 13.78054688 -3.98046875 13.15234375 C-1.56063671 8.71455991 -0.41959037 5.03508447 0 0 Z " fill="#DED7CE" transform="translate(453,619)"/>
<path d="M0 0 C1.96411133 0.83032227 1.96411133 0.83032227 4 2 C4.57421875 4.71484375 4.57421875 4.71484375 4.6875 7.9375 C4.82939619 11.2740876 4.94055732 13.82167197 6 17 C6.1256032 18.72774185 6.22708843 20.45730553 6.3125 22.1875 C6.74896726 27.41125098 7.88954645 31.72044494 11 36 C11.99 36.66 12.98 37.32 14 38 C14.36076355 40.13870239 14.36076355 40.13870239 14.34057617 42.81689453 C14.34034958 43.81778107 14.34012299 44.8186676 14.33988953 45.84988403 C14.32440567 46.93325043 14.30892181 48.01661682 14.29296875 49.1328125 C14.28872391 50.23978485 14.28447906 51.3467572 14.28010559 52.48727417 C14.26327214 56.0334271 14.2256108 59.57901797 14.1875 63.125 C14.17245922 65.52473139 14.15876977 67.92447167 14.14648438 70.32421875 C14.11335338 76.21633859 14.06310777 82.10812915 14 88 C12.329375 88.5878125 12.329375 88.5878125 10.625 89.1875 C7.96115918 90.34182752 7.15555736 90.75298031 5.5637207 93.28076172 C4.90486286 96.45891616 4.85875734 99.26263851 4.98046875 102.5078125 C5.00947266 103.74144531 5.03847656 104.97507812 5.06835938 106.24609375 C5.14803802 108.84022134 5.23925801 111.43401916 5.34179688 114.02734375 C5.36693359 115.25839844 5.39207031 116.48945313 5.41796875 117.7578125 C5.45688232 118.8833252 5.4957959 120.00883789 5.53588867 121.16845703 C5 124 5 124 2.53637695 125.76513672 C1.69937256 126.1726416 0.86236816 126.58014648 0 127 C-1.18709733 129.0505842 -1.18709733 129.0505842 -1.18359375 131.828125 C-1.8596336 140.93906211 -1.8596336 140.93906211 -5.35546875 144.19140625 C-7.8579544 145.65618981 -10.31301622 146.91429991 -13 148 C-11.51644799 142.70345907 -9.8358035 137.5314963 -7.89599609 132.38305664 C-3.72879495 121.19178592 -1.23929444 109.7128054 1 98 C1.16557907 97.23496658 1.33115814 96.46993317 1.50175476 95.68171692 C3.01805588 88.2449151 3.30655449 81.07182837 3.30078125 73.49609375 C3.30506638 72.21936295 3.3093515 70.94263214 3.31376648 69.62721252 C3.32118157 66.93022496 3.32097736 64.23336827 3.31567383 61.53637695 C3.31108946 58.83047655 3.31778746 56.12503058 3.33618164 53.41918945 C3.44985929 35.39300424 2.55736074 17.8524645 0 0 Z " fill="#F6EFE5" transform="translate(579,249)"/>
<path d="M0 0 C4.87160481 2.4358024 7.37731217 5.27255008 10 10 C10.38885986 12.83638957 10.56348206 15.18562874 10.5 18 C10.51546875 18.68578125 10.5309375 19.3715625 10.546875 20.078125 C10.50790062 25.18376878 9.17619428 28.07032898 6 32 C2.0736905 35.39090366 -0.94972447 36.6746341 -6.046875 36.3828125 C-10.61751482 35.4869671 -13.30081735 32.86504715 -16.140625 29.3515625 C-18.30694862 25.44671866 -18.59809249 22.34876717 -18.5 18 C-18.51546875 17.31421875 -18.5309375 16.6284375 -18.546875 15.921875 C-18.50790062 10.81623122 -17.17619428 7.92967102 -14 4 C-9.5187451 0.12982531 -5.76017089 -1.12899349 0 0 Z " fill="#000000" transform="translate(333,485)"/>
<path d="M0 0 C0.33 0 0.66 0 1 0 C0.99111755 0.57453415 0.98223511 1.1490683 0.9730835 1.74101257 C0.17759492 41.07070641 0.17759492 41.07070641 5 80 C5.17128418 80.91587891 5.34256836 81.83175781 5.51904297 82.77539062 C12.78066324 121.02968992 31.76110612 153.74097385 54 185 C54.83917969 186.18239258 54.83917969 186.18239258 55.6953125 187.38867188 C58.45040973 191.26865177 61.21702933 195.13996616 64 199 C63.67 199.66 63.34 200.32 63 201 C62.33613281 200.45730469 61.67226562 199.91460937 60.98828125 199.35546875 C59.66376953 198.28232422 59.66376953 198.28232422 58.3125 197.1875 C57.44238281 196.47980469 56.57226562 195.77210938 55.67578125 195.04296875 C53.07584152 192.94801654 53.07584152 192.94801654 50.2265625 191.5 C48 190 48 190 47.28515625 188.01953125 C47.21167969 187.29121094 47.13820312 186.56289063 47.0625 185.8125 C46.10045841 180.42506711 43.8907829 176.83368545 40 173 C37.63524459 171.43378353 35.27785923 170.01645205 32.7578125 168.71484375 C31 167 31 167 30.921875 163.69921875 C30.96054688 161.86810547 30.96054688 161.86810547 31 160 C29.86164795 156.91467017 29.86164795 156.91467017 28.125 153.875 C27.47973365 152.64690155 26.83664237 151.41765871 26.1953125 150.1875 C25.8437207 149.52105469 25.49212891 148.85460937 25.12988281 148.16796875 C18.53954882 135.5227298 12.9221782 122.77116899 8.47265625 109.22265625 C7.5906161 106.56127255 6.65205423 104.31742696 5.3671875 101.796875 C3.90797366 98.81174039 3.44597491 96.47504333 3.0625 93.1875 C2.32787978 87.8308942 1.31345855 82.62890933 0.0625 77.375 C-0.10910645 76.64949951 -0.28071289 75.92399902 -0.45751953 75.17651367 C-1.44719349 71.07118223 -2.57901255 67.03995431 -3.8125 63 C-5.50427418 57.00106021 -4.95261245 51.85783734 -3 46 C-2.90514218 43.8350098 -2.87011923 41.66706177 -2.875 39.5 C-2.87242188 38.3553125 -2.86984375 37.210625 -2.8671875 36.03125 C-2.86315592 32.95320141 -2.86315592 32.95320141 -4 30 C-5.18416523 7.77624785 -5.18416523 7.77624785 0 0 Z " fill="#EEE7DE" transform="translate(14,273)"/>
<path d="M0 0 C-0.70962891 0.67482422 -0.70962891 0.67482422 -1.43359375 1.36328125 C-6.1950477 5.99479299 -10.45195993 10.86341241 -14.6015625 16.046875 C-16.62984708 18.54424168 -18.71623134 20.97133601 -20.83862305 23.38842773 C-50.85164907 57.85587572 -70.33671802 100.63573884 -80 145 C-80.33 145 -80.66 145 -81 145 C-83.64273171 136.24595122 -83.64273171 136.24595122 -82.046875 133.15234375 C-81.61890625 132.42144531 -81.1909375 131.69054687 -80.75 130.9375 C-78.2827999 126.18278384 -77.10686345 121.63988467 -76.0625 116.4375 C-74.2212114 107.27261888 -71.28241763 98.73628078 -68 90 C-67.01137712 87.03413135 -66.93725515 85.02802345 -66.875 81.9375 C-66.30949286 75.11550911 -63.08824798 71.26593258 -59 66 C-55.98972061 61.59579813 -53.36346772 57.24048256 -51.64453125 52.17578125 C-48.09486484 41.76568979 -48.09486484 41.76568979 -44.609375 39.328125 C-42.09503399 38.40971302 -39.5826663 37.69744671 -37 37 C-31.00375236 33.35522203 -28.99253652 28.36835352 -25.8515625 22.2109375 C-23.67519577 18.4367319 -21.18008953 15.88095943 -17.9765625 12.98046875 C-15.71647316 10.71591283 -14.11236992 8.30759099 -12.375 5.625 C-10.19989717 2.39214168 -9.27952538 1.14513818 -5.75 -0.6875 C-3 -1 -3 -1 0 0 Z " fill="#F4EDE4" transform="translate(99,108)"/>
<path d="M0 0 C3.55234608 3.73451768 3.88758276 6.15375799 3.86328125 11.16796875 C3.13010603 15.29123858 0.52276198 17.87688335 -2.5625 20.5625 C-6.17218823 22.36734412 -10.3369071 21.87555733 -14.3125 21.9375 C-15.20710938 21.97488281 -16.10171875 22.01226562 -17.0234375 22.05078125 C-21.42440414 22.10920116 -24.57716629 22.06391829 -28.10546875 19.25 C-31.0874544 15.98830504 -32.03283178 13.9511795 -32.5625 9.5625 C-31.07251397 4.39137202 -29.27906989 1.21557056 -24.5625 -1.4375 C-16.76275255 -3.75600328 -6.78785453 -5.46260674 0 0 Z " fill="#000000" transform="translate(268.5625,32.4375)"/>
<path d="M0 0 C2 3 2 3 1.9375 4.8125 C0.83471892 7.38565586 -0.78282674 9.16929101 -2.64453125 11.234375 C-4.15954627 13.20782395 -4.95591525 15.15618841 -5.9375 17.4375 C-8.60532495 22.56594019 -12.91347993 24.44302172 -18.01147461 26.61694336 C-21.71485794 28.20896332 -24.18909219 29.32198379 -26 33 C-26.33 35.64 -26.66 38.28 -27 41 C-57.69 41 -88.38 41 -120 41 C-120.99 38.03 -121.98 35.06 -123 32 C-122.31035156 32.26554688 -121.62070312 32.53109375 -120.91015625 32.8046875 C-95.01479062 42.53765072 -64.02100495 41.53142255 -38.6875 30.140625 C-25.05809014 23.64906203 -6.30344031 14.49791272 0 0 Z " fill="#F4EDE3" transform="translate(380,814)"/>
<path d="M0 0 C0.33 0 0.66 0 1 0 C1.2475 1.19625 1.495 2.3925 1.75 3.625 C3.55352771 10.62911106 6.92528514 14.35334592 13 18.01953125 C16.40087044 19.68675485 19.52486769 20.12508973 23.28721237 20.1386652 C24.56885635 20.14687687 24.56885635 20.14687687 25.87639213 20.15525442 C26.8102412 20.15623253 27.74409027 20.15721064 28.70623779 20.15821838 C30.19981918 20.16562535 30.19981918 20.16562535 31.72357392 20.17318195 C35.06929497 20.18857392 38.41499681 20.19692221 41.76074219 20.20532227 C44.15539215 20.21489945 46.55004041 20.22490943 48.94468689 20.23532104 C54.7781841 20.25958062 60.61168406 20.27931679 66.44520441 20.29707379 C73.23289971 20.31797818 80.02056989 20.34443684 86.80824402 20.37124526 C98.91300306 20.41890639 111.01777367 20.46217458 123.12255859 20.50268555 C134.88135681 20.542048 146.64014475 20.58347602 158.39892578 20.62768555 C159.12371481 20.63040982 159.84850384 20.63313409 160.59525618 20.63594092 C164.23130308 20.64962052 167.86734984 20.66334077 171.50339651 20.67708123 C201.66890974 20.79102277 231.83444469 20.89776416 262 21 C262 21.33 262 21.66 262 22 C234.60696926 23.81197896 207.33122632 24.26520726 179.88425875 24.16985631 C174.37462139 24.15325986 168.86497405 24.14947484 163.35531616 24.14439392 C152.97040807 24.13314938 142.58554527 24.1125154 132.20066202 24.08749622 C113.56866025 24.04269827 94.93664182 24.00983425 76.30460012 23.98725218 C69.79096867 23.97892299 63.27738187 23.96498537 56.76377225 23.94627964 C52.71174008 23.93555747 48.65970824 23.92902627 44.60766602 23.92347908 C42.74700884 23.92004257 40.88635383 23.91486695 39.02570724 23.90771103 C27.96967237 23.86615787 17.0268778 24.1514975 6 25 C5.80035645 24.39148193 5.60071289 23.78296387 5.39501953 23.15600586 C4.14791199 19.3557275 2.8536133 15.62883328 1.3125 11.9375 C-0.26813618 7.84595738 -0.23334097 4.35569809 0 0 Z " fill="#D1CBC3" transform="translate(157,697)"/>
<path d="M0 0 C1.6874269 0.00015917 3.37485866 0.00585622 5.06225586 0.01586914 C6.39189613 0.01799156 6.39189613 0.01799156 7.74839783 0.02015686 C10.59133215 0.02577324 13.43418892 0.03832848 16.27709961 0.05102539 C18.19962452 0.05603828 20.12215065 0.06060155 22.04467773 0.06469727 C26.7680151 0.07574798 31.49129419 0.09302356 36.21459961 0.11352539 C36.48014648 1.2337207 36.74569336 2.35391602 37.01928711 3.50805664 C37.37574457 4.98078877 37.73253269 6.4534409 38.08959961 7.92602539 C38.26362305 8.66401367 38.43764648 9.40200195 38.61694336 10.16235352 C39.45952472 13.61069576 40.22745536 16.13280901 42.21459961 19.11352539 C41.82397461 20.98852539 41.82397461 20.98852539 40.96459961 23.11352539 C39.56975687 26.76157562 38.97763156 29.98320592 38.58959961 33.86352539 C38.05024435 37.12251096 37.72028055 38.6357085 35.30053711 40.92211914 C30.98617731 43.46889006 27.296207 44.76501352 22.21459961 44.11352539 C23.21459961 41.11352539 23.21459961 41.11352539 25.46459961 39.80102539 C29.3599233 37.41071313 32.1495245 34.24367561 34.21459961 30.11352539 C34.9036603 22.61260758 35.34487219 15.8122332 30.64428711 9.59790039 C26.4288367 5.22120324 22.11031611 4.17939961 16.22411728 3.97486019 C14.55933067 3.96329807 12.89450097 3.95720064 11.22967529 3.95530701 C10.31154186 3.95036903 9.39340844 3.94543105 8.44745278 3.94034344 C5.36430304 3.92495889 2.28117414 3.91660519 -0.80200195 3.90820312 C-3.00946232 3.89862536 -5.21692085 3.88861534 -7.42437744 3.87820435 C-13.42393749 3.85113826 -19.42350543 3.83013789 -25.42309284 3.81020236 C-31.69050347 3.78835334 -37.95788976 3.76095934 -44.22528076 3.73414612 C-54.74693729 3.68988236 -65.26860318 3.64904958 -75.7902832 3.61083984 C-86.6275327 3.57147473 -97.46477107 3.53004607 -108.30200195 3.48583984 C-108.97003807 3.48311557 -109.63807418 3.4803913 -110.32635382 3.47758447 C-113.67770338 3.46390483 -117.02905277 3.45018459 -120.38040209 3.43644416 C-148.18204541 3.32260168 -175.98371216 3.21576756 -203.78540039 3.11352539 C-203.78540039 2.78352539 -203.78540039 2.45352539 -203.78540039 2.11352539 C-202.76072946 2.10929345 -201.73605852 2.10506151 -200.68033695 2.10070133 C-175.78622376 1.99766057 -150.89214041 1.88893212 -125.99807835 1.77418613 C-113.95966643 1.71882929 -101.92125156 1.66534331 -89.8828125 1.61621094 C-79.3942053 1.57339919 -68.90562015 1.52712891 -58.41704696 1.47664684 C-52.85974467 1.45002158 -47.30244682 1.42516799 -41.74511909 1.40445137 C-36.52085135 1.3849218 -31.29662565 1.36078928 -26.07239532 1.33303452 C-24.14904224 1.32364451 -22.2256799 1.3159763 -20.30231285 1.31010628 C-17.68831677 1.30187807 -15.07442365 1.28761097 -12.46046448 1.27174377 C-11.68907861 1.27076567 -10.91769274 1.26978756 -10.12293154 1.26877981 C-6.24758094 1.23826227 -3.72868491 0.11182447 0 0 Z " fill="#D2CCC3" transform="translate(392.785400390625,743.886474609375)"/>
<path d="M0 0 C112.365 0.495 112.365 0.495 227 1 C227 1.33 227 1.66 227 2 C226.16044407 2.00634791 226.16044407 2.00634791 225.30392742 2.01282406 C211.59440097 2.11677748 197.88491981 2.22555571 184.17547131 2.33933926 C177.5452994 2.39422577 170.91512532 2.44758606 164.28491211 2.49731445 C157.8722581 2.54546965 151.45965019 2.5978219 145.04705238 2.65294075 C142.61498493 2.67313538 140.18290497 2.69188227 137.75081444 2.70907402 C126.54800255 2.7891146 115.35572258 2.8895128 104.1652832 3.45727539 C103.40193507 3.49530746 102.63858694 3.53333952 101.85210705 3.57252407 C98.14821793 3.78459618 94.62114904 4.20262719 91 5 C86.27710753 5.34410459 81.54489215 5.46639839 76.8125 5.625 C74.9262793 5.70234375 74.9262793 5.70234375 73.00195312 5.78125 C66.04603457 6.02074492 59.22940796 5.95241741 52.28515625 5.48046875 C45.77643075 5.04506968 39.36965645 5.00401596 32.8515625 5.26171875 C32.00963852 5.29414673 31.16771454 5.32657471 30.30027771 5.35998535 C26.85793682 5.49888592 23.41646451 5.64804347 19.97558594 5.81958008 C17.41381088 5.94349872 14.85205705 6.04192695 12.2890625 6.13671875 C11.51309723 6.18237473 10.73713196 6.2280307 9.93765259 6.27507019 C6.32872793 6.39272135 4.41902826 6.31343834 1.48193359 4.11645508 C0 2 0 2 0 0 Z " fill="#D1CBC2" transform="translate(183,786)"/>
<path d="M0 0 C53.13 0 106.26 0 161 0 C161.33 1.32 161.66 2.64 162 4 C160.68 4.66 159.36 5.32 158 6 C158 5.34 158 4.68 158 4 C79.79 3.505 79.79 3.505 0 3 C0 2.01 0 1.02 0 0 Z " fill="#010101" transform="translate(218,813)"/>
<path d="M0 0 C0.91675507 -0.00322266 1.83351013 -0.00644531 2.77804565 -0.00976562 C5.41866237 -0.01543415 8.05865902 -0.00518679 10.69921875 0.01171875 C11.49418762 0.01092819 12.28915649 0.01013763 13.10821533 0.00932312 C19.45938813 0.08968669 22.8039137 0.8039137 27.3125 5.3125 C4.2125 5.3125 -18.8875 5.3125 -42.6875 5.3125 C-37.67774195 15.3320161 -29.51231891 21.46755191 -20.703125 28.05078125 C-17.98688612 30.08796041 -15.32657659 32.17680283 -12.6875 34.3125 C-18.33342071 34.01534628 -21.36722801 33.21252156 -25.76171875 29.70703125 C-28.73421187 27.55453623 -32.02436221 26.13714066 -35.35546875 24.62109375 C-39.42538432 22.33730528 -41.30270961 20.34098295 -42.953125 15.9296875 C-43.27796875 14.69476562 -43.6028125 13.45984375 -43.9375 12.1875 C-44.27265625 10.94742188 -44.6078125 9.70734375 -44.953125 8.4296875 C-45.6875 5.3125 -45.6875 5.3125 -45.6875 3.3125 C-30.42473503 0.68260819 -15.45312238 0.00270778 0 0 Z " fill="#F5EEE4" transform="translate(260.6875,807.6875)"/>
<path d="M0 0 C3.22134654 6.22298156 3.27433855 12.49457761 3.60546875 19.38085938 C3.74718021 23.31924939 3.74718021 23.31924939 5 27 C7.95892624 63.79679861 -2.32083508 100.46998083 -19 133 C-20.11177696 129.66466913 -19.96223413 129.21721257 -18.7421875 126.11328125 C-18.44860352 125.34741699 -18.15501953 124.58155273 -17.85253906 123.79248047 C-17.52995117 122.97408691 -17.20736328 122.15569336 -16.875 121.3125 C-13.98714503 113.75532108 -11.39784867 106.17618426 -9.05859375 98.43359375 C-8.22272297 95.7224114 -7.30603165 93.09186069 -6.3125 90.4375 C-4.49756153 84.94198799 -3.91429322 79.30244115 -3.29003906 73.56787109 C-2.95950751 70.64149829 -2.58287118 67.72217522 -2.2109375 64.80078125 C0.38157641 43.1854131 0.31477391 21.7371565 0 0 Z " fill="#F1EAE0" transform="translate(538,264)"/>
<path d="M0 0 C6.80566379 3.21420485 12.22457168 8.02008373 17.40234375 13.41015625 C19.10558368 15.17872816 19.10558368 15.17872816 21.75 17.0625 C24.51563983 19.44402318 25.47376742 21.69316274 27 25 C28.18662876 26.99984287 29.42766544 28.95706376 30.68359375 30.9140625 C31.56192835 32.30584493 32.40865193 33.71807847 33.22265625 35.1484375 C33.62355469 35.84195313 34.02445313 36.53546875 34.4375 37.25 C34.78683594 37.87390625 35.13617187 38.4978125 35.49609375 39.140625 C37.01205657 41.23919208 37.01205657 41.23919208 39.93359375 42.71484375 C43.96970823 45.7226488 44.97500859 48.67890762 46.625 53.3125 C48.99968206 59.69674675 48.99968206 59.69674675 52.09765625 65.75 C53.65644388 68.41306223 54.83659617 70.78066344 55.8125 73.6875 C56.19341797 74.77611328 56.19341797 74.77611328 56.58203125 75.88671875 C57.0553448 78.27982746 56.65287054 79.68208238 56 82 C55.72027344 81.42894531 55.44054687 80.85789062 55.15234375 80.26953125 C44.87163671 59.47671861 32.63091244 40.01912374 18 22 C16.86691406 20.58074219 16.86691406 20.58074219 15.7109375 19.1328125 C11.20722523 13.54573302 6.51873878 8.17244511 1.65234375 2.8984375 C0 1 0 1 0 0 Z " fill="#F2EBE2" transform="translate(504,112)"/>
<path d="M0 0 C1.75788916 -0.001359 3.51577803 -0.00314172 5.27366638 -0.00531006 C9.99645459 -0.00982338 14.71922067 -0.00812069 19.44200921 -0.00493097 C24.40959747 -0.00237755 29.37718399 -0.00475297 34.34477234 -0.00631714 C42.67711727 -0.00812934 51.0094533 -0.00575664 59.34179688 -0.00097656 C68.95197298 0.00447317 78.5621279 0.00269441 88.1723035 -0.00280297 C96.4563831 -0.00735054 104.74045634 -0.00797687 113.02453679 -0.0053643 C117.95818281 -0.00381172 122.89181888 -0.00357987 127.82546425 -0.00690079 C132.46064173 -0.00980377 137.09579201 -0.00775946 141.73096657 -0.00200653 C143.42438207 -0.00069229 145.11779989 -0.00105015 146.81121445 -0.0032692 C155.53152003 -0.01363708 164.16121369 0.09169236 172.8347168 1.12939453 C172.8347168 1.45939453 172.8347168 1.78939453 172.8347168 2.12939453 C171.81649841 2.13270468 170.79828003 2.13601482 169.74920654 2.13942528 C144.96944833 2.22043279 120.18975192 2.31275247 95.41007996 2.41692162 C83.4268013 2.46703543 71.44352945 2.51347855 59.46020508 2.55126953 C49.01509386 2.58421888 38.57003559 2.62406647 28.12498283 2.67218459 C22.59483955 2.69742022 17.06473125 2.71921024 11.5345459 2.73273849 C6.32745694 2.74558539 1.12048816 2.76766831 -4.0865345 2.79677773 C-5.99565391 2.80583293 -7.90479266 2.81153892 -9.81393242 2.81360817 C-12.42556978 2.81694525 -15.03686939 2.83246166 -17.6484375 2.85092163 C-18.77493147 2.84801953 -18.77493147 2.84801953 -19.92418289 2.8450588 C-24.95707827 2.89804394 -29.31964094 3.75634902 -34.1652832 5.12939453 C-34.1652832 3.80939453 -34.1652832 2.48939453 -34.1652832 1.12939453 C-22.76166227 0.27572621 -11.43297365 -0.01508057 0 0 Z " fill="#F9F2E8" transform="translate(215.165283203125,743.87060546875)"/>
<path d="M0 0 C5.05433887 1.5514901 9.73246794 3.62110523 14.5 5.875 C15.23347656 6.21402344 15.96695312 6.55304687 16.72265625 6.90234375 C20.08287149 8.48326791 23.05146816 10.0365216 26.09375 12.1953125 C28.93052393 14.2390572 28.93052393 14.2390572 32.48046875 14.42578125 C36.90115777 15.14702574 39.1665587 17.21924612 42.3125 20.1875 C46.93275858 24.33851357 51.48823791 27.67693058 56.91796875 30.73828125 C59.73648787 32.44631441 61.80681475 34.55616501 64 37 C64.804375 37.78375 65.60875 38.5675 66.4375 39.375 C68.40369956 41.38915565 70.16064738 43.39233365 71.9375 45.5625 C74.00347478 48.03953436 75.44113096 49.2799485 78.25 51.0625 C81.56582471 53.39864923 82.11718305 55.1156054 83 59 C78.62351674 56.6496664 75.28221533 53.55717991 71.75 50.125 C50.47375472 29.9749773 25.24035591 14.75117295 -1 2 C-0.67 1.34 -0.34 0.68 0 0 Z " fill="#F1EAE1" transform="translate(419,51)"/>
<path d="M0 0 C0 0.66 0 1.32 0 2 C-84.36103007 8.34439274 -84.36103007 8.34439274 -117 3 C-117 2.34 -117 1.68 -117 1 C-102.4833694 0.86934397 -87.9667365 0.73894709 -73.4501009 0.60884857 C-66.70965276 0.54843589 -59.96920538 0.48793964 -53.22875977 0.42724609 C-46.72543199 0.36868788 -40.22210214 0.3103633 -33.71877098 0.25218201 C-31.23604449 0.22993224 -28.75331871 0.20760382 -26.27059364 0.18519592 C-22.7966899 0.15385548 -19.32278378 0.12279318 -15.84887695 0.09179688 C-14.30491745 0.07777077 -14.30491745 0.07777077 -12.72976685 0.0634613 C-11.78050827 0.05504715 -10.83124969 0.046633 -9.85322571 0.03796387 C-8.62124938 0.02690235 -8.62124938 0.02690235 -7.36438465 0.01561737 C-4.90952033 -0.00059764 -2.45491055 -0.00265168 0 0 Z " fill="#F9F2E8" transform="translate(415,787)"/>
<path d="M0 0 C0.33 0 0.66 0 1 0 C1 23.1 1 46.2 1 70 C-18.47 70 -37.94 70 -58 70 C-60.2491075 62.12812376 -60.2491075 62.12812376 -60.81640625 58.5546875 C-61.00299805 57.40419922 -61.00299805 57.40419922 -61.19335938 56.23046875 C-61.37608398 55.06451172 -61.37608398 55.06451172 -61.5625 53.875 C-61.81308916 52.30978153 -62.06437217 50.74467396 -62.31640625 49.1796875 C-62.43258301 48.45620117 -62.54875977 47.73271484 -62.66845703 46.98730469 C-63.05895902 44.64659321 -63.51043409 42.32194118 -64 40 C-61.25230208 41.96589437 -60.9566689 43.20067991 -60.2265625 46.58203125 C-59.90841161 48.69574624 -59.62522127 50.81073469 -59.359375 52.93164062 C-58.52840942 58.3481175 -56.86983005 61.09455802 -53 65 C-45.66644359 69.05275486 -36.1213921 68.27766203 -27.98413086 68.35009766 C-26.61774746 68.3667231 -25.25145332 68.39409993 -23.88549805 68.43212891 C-15.03887495 69.03495188 -15.03887495 69.03495188 -7.19140625 65.7265625 C-3.91283186 61.64733804 -2.80345923 59.09186567 -2.4375 53.875 C-2.09722222 49.19444444 -2.09722222 49.19444444 -1 47 C-0.90344548 45.22212157 -0.86924537 43.44065344 -0.8671875 41.66015625 C-0.86589844 40.59732422 -0.86460937 39.53449219 -0.86328125 38.43945312 C-0.86908203 36.76786133 -0.86908203 36.76786133 -0.875 35.0625 C-0.87113281 33.95197266 -0.86726563 32.84144531 -0.86328125 31.69726562 C-0.86457031 30.63314453 -0.86585938 29.56902344 -0.8671875 28.47265625 C-0.86887939 27.00711304 -0.86887939 27.00711304 -0.87060547 25.51196289 C-0.89454531 22.87135437 -0.89454531 22.87135437 -2 20 C-1.71131546 18.6562924 -1.37455948 17.32234416 -1 16 C-0.77609683 13.24682026 -0.58606338 10.50694671 -0.4375 7.75 C-0.37272461 6.63238281 -0.37272461 6.63238281 -0.30664062 5.4921875 C-0.20103275 3.661651 -0.10005799 1.83084824 0 0 Z " fill="#F8F1E7" transform="translate(242,534)"/>
<path d="M0 0 C4.875 1.875 4.875 1.875 6 3 C7.66374254 12.05815381 7.72641492 17.57412037 3.2890625 25.60546875 C1.74288961 28.36946254 1.74288961 28.36946254 0 33 C-5.94 33 -11.88 33 -18 33 C-18.33 32.34 -18.66 31.68 -19 31 C-18.28714844 30.86464844 -17.57429688 30.72929688 -16.83984375 30.58984375 C-8.92610115 28.8111156 -4.24713241 26.03305524 0.171875 19.18359375 C1.29638698 16.21848903 1.22739218 13.66236224 1.1875 10.5 C1.18105469 9.3759375 1.17460937 8.251875 1.16796875 7.09375 C1.0295553 4.54436746 0.74334614 2.4262818 0 0 Z " fill="#F4EDE4" transform="translate(438,687)"/>
<path d="M0 0 C1 3 1 3 -0.1875 5.6796875 C-0.785625 6.73414063 -1.38375 7.78859375 -2 8.875 C-2.64582031 10.02484375 -3.29164063 11.1746875 -3.95703125 12.359375 C-4.46484131 13.2555957 -4.46484131 13.2555957 -4.98291016 14.16992188 C-5.98709735 15.97678391 -6.943691 17.80120001 -7.88671875 19.640625 C-8.48097656 20.79046875 -9.07523438 21.9403125 -9.6875 23.125 C-10.22761719 24.17945313 -10.76773438 25.23390625 -11.32421875 26.3203125 C-12.9988523 28.99816475 -14.44382494 30.22951244 -17 32 C-17.68132451 33.66072849 -18.34742127 35.327767 -19 37 C-20.32907578 38.33757733 -21.66305821 39.67028492 -23 41 C-24.26642335 42.65972252 -25.4956653 44.3484297 -26.6875 46.0625 C-27.28949219 46.91972656 -27.89148438 47.77695312 -28.51171875 48.66015625 C-30.13670916 51.00625083 -30.13670916 51.00625083 -31 54 C-32.33333333 55.33333333 -33.66666667 56.66666667 -35 58 C-35.33 58.99 -35.66 59.98 -36 61 C-36.66 61 -37.32 61 -38 61 C-38.10030518 61.74886475 -38.20061035 62.49772949 -38.30395508 63.26928711 C-39.07958421 66.31222356 -39.97664435 67.46312215 -42.13671875 69.69140625 C-46.21498813 74.12593825 -49.49317484 78.92171694 -52.8125 83.9375 C-53.93989404 85.63685268 -55.07120539 87.33361518 -56.20703125 89.02734375 C-56.6966333 89.76718506 -57.18623535 90.50702637 -57.69067383 91.26928711 C-59 93 -59 93 -61 94 C-59.6728909 90.37259529 -58.06079342 87.3712909 -55.875 84.19140625 C-55.25616943 83.28696777 -54.63733887 82.3825293 -53.99975586 81.45068359 C-53.33983643 80.49758301 -52.67991699 79.54448242 -52 78.5625 C-51.3201001 77.57330566 -50.6402002 76.58411133 -49.93969727 75.56494141 C-45.55100338 69.19585006 -41.09697244 62.87754579 -36.58203125 56.59765625 C-23.42879185 38.29364375 -10.93942299 19.72313616 0 0 Z " fill="#E7E0D7" transform="translate(555,418)"/>
<path d="M0 0 C1.68859256 0.60899703 3.3542301 1.28329668 5 2 C7.48001369 2.32086947 7.48001369 2.32086947 10.06567383 2.31884766 C11.53663261 2.34865219 11.53663261 2.34865219 13.03730774 2.37905884 C14.60632088 2.39638565 14.60632088 2.39638565 16.20703125 2.4140625 C17.28756271 2.43342865 18.36809418 2.4527948 19.48136902 2.4727478 C22.9249996 2.53242103 26.36866383 2.57888041 29.8125 2.625 C32.15040502 2.66319101 34.48829615 2.7022434 36.82617188 2.7421875 C42.55065765 2.83811253 48.27522748 2.92319593 54 3 C54 3.33 54 3.66 54 4 C4.83 4 -44.34 4 -95 4 C-95 3.67 -95 3.34 -95 3 C-89.42257289 2.20323874 -84.0571735 1.86778294 -78.4284668 1.91821289 C-77.61281754 1.92127945 -76.79716827 1.92434601 -75.95680237 1.92750549 C-74.20099061 1.93461312 -72.44518679 1.9439776 -70.68939781 1.95540047 C-67.91131943 1.97289491 -65.13329932 1.98312138 -62.35517883 1.99131775 C-54.46190904 2.01569125 -46.56871877 2.05151433 -38.67553711 2.09594727 C-33.83583399 2.1226876 -28.99617523 2.13975446 -24.15641212 2.15081596 C-22.31396648 2.15702928 -20.47152962 2.16703897 -18.6291256 2.18089485 C-16.0608792 2.20005476 -13.49286864 2.20699844 -10.92456055 2.21118164 C-10.1624527 2.21994324 -9.40034485 2.22870483 -8.61514282 2.23773193 C-4.85460796 2.23071919 -3.21202408 2.14134938 0 0 Z " fill="#F8F1E8" transform="translate(338,670)"/>
<path d="M0 0 C0.33 0 0.66 0 1 0 C1.02314783 10.90042324 1.04092758 21.80084066 1.05181217 32.70128345 C1.05703564 37.76253438 1.06412361 42.82376851 1.07543945 47.88500977 C1.08628731 52.76736809 1.09228089 57.64971025 1.09487724 62.5320797 C1.09672805 64.39683983 1.10034211 66.26159905 1.10573006 68.12635231 C1.11296564 70.73374993 1.11398987 73.34108032 1.11352539 75.94848633 C1.11712067 76.72316254 1.12071594 77.49783875 1.12442017 78.29598999 C1.11828514 81.46874485 1.01107343 83.9667797 0 87 C-2.31 87 -4.62 87 -7 87 C-4 85 -4 85 -2 85 C-2.00507568 83.70296143 -2.01015137 82.40592285 -2.01538086 81.06958008 C-2.05596655 65.62348352 -1.88127008 50.18385329 -1.62768555 34.73999023 C-1.57157677 31.30727591 -1.52179625 27.87449742 -1.47328281 24.44166851 C-1.42522005 21.13161485 -1.37038106 17.82168124 -1.31640625 14.51171875 C-1.29133751 12.66679085 -1.29133751 12.66679085 -1.26576233 10.78459167 C-1.2358445 9.09430595 -1.2358445 9.09430595 -1.20532227 7.36987305 C-1.18200584 5.88175362 -1.18200584 5.88175362 -1.15821838 4.36357117 C-1 2 -1 2 0 0 Z " fill="#AEAAA4" transform="translate(314,517)"/>
<path d="M0 0 C9.33866798 2.19813329 9.33866798 2.19813329 18.8203125 3.56640625 C23.4164276 4.08172825 25.21392486 5.06082103 28.6875 8 C28.6875 8.66 28.6875 9.32 28.6875 10 C27.68332031 9.74605469 26.67914063 9.49210937 25.64453125 9.23046875 C22.0199921 8.31618667 18.39234333 7.41481624 14.76367188 6.51708984 C13.04349457 6.08866375 11.32605265 5.64927181 9.609375 5.20703125 C2.13667781 3.35927416 -5.40328538 2.09993776 -13 0.875 C-14.05759521 0.70419922 -15.11519043 0.53339844 -16.20483398 0.35742188 C-22.5604561 -0.64141112 -28.90297427 -1.44171934 -35.3125 -2 C-35.3125 -2.33 -35.3125 -2.66 -35.3125 -3 C-23.59644486 -5.51058324 -11.44972167 -2.65718773 0 0 Z " fill="#ECE5DC" transform="translate(358.3125,31)"/>
<path d="M0 0 C0.33 0 0.66 0 1 0 C1.2475 1.19625 1.495 2.3925 1.75 3.625 C3.24317078 9.42382076 5.70603488 13.35309635 10.6875 16.75 C14.91647614 19.22685796 19.18969313 20.25395704 24 21 C23.34 21.33 22.68 21.66 22 22 C22 22.66 22 23.32 22 24 C16.72 24.33 11.44 24.66 6 25 C5.566875 23.68 5.13375 22.36 4.6875 21 C3.67469688 17.9181848 2.56176473 14.92978647 1.3125 11.9375 C-0.26813618 7.84595738 -0.23334097 4.35569809 0 0 Z " fill="#EDE6DD" transform="translate(157,697)"/>
<path d="M0 0 C-3.08700668 1.67336048 -6.10836121 2.69118539 -9.48828125 3.62890625 C-11.12156372 4.09200195 -11.12156372 4.09200195 -12.7878418 4.56445312 C-13.950979 4.89380859 -15.11411621 5.22316406 -16.3125 5.5625 C-29.20503054 9.28171725 -41.61513197 13.8541619 -54 19 C-52.82375614 15.47126842 -52.37424346 15.31156716 -49.1875 13.6875 C-43.05919841 10.7391456 -36.58097244 8.95334183 -30.0456543 7.14331055 C-25.57875323 5.88531345 -21.9144988 4.56888984 -18 2 C-11.8864882 0.03124196 -6.39530205 -0.23589229 0 0 Z " fill="#F2EBE1" transform="translate(233,34)"/>
<path d="M0 0 C0.72015289 -0.0033284 1.44030579 -0.0066568 2.18228149 -0.01008606 C3.70712647 -0.01515175 5.23198255 -0.0174945 6.75683594 -0.01733398 C9.08547351 -0.01951617 11.41363405 -0.03766321 13.7421875 -0.05664062 C15.22395671 -0.05957552 16.70572818 -0.06155967 18.1875 -0.0625 C19.2298732 -0.07327827 19.2298732 -0.07327827 20.29330444 -0.08427429 C23.94256751 -0.06710506 26.62312734 0.16723931 29.7265625 2.16796875 C26.62712705 3.71768648 23.34712652 3.33088317 19.9453125 3.3359375 C19.17602417 3.3392659 18.40673584 3.3425943 17.61413574 3.34602356 C15.98674112 3.35108879 14.3593361 3.35343201 12.73193359 3.35327148 C10.23648075 3.35546005 7.74146845 3.37362529 5.24609375 3.39257812 C3.66666818 3.39551166 2.08724051 3.39749672 0.5078125 3.3984375 C-0.2411731 3.40562302 -0.99015869 3.41280853 -1.76184082 3.42021179 C-7.0446099 3.39679635 -7.0446099 3.39679635 -9.2734375 1.16796875 C-6.30004184 -0.31872908 -3.26051035 0.00519107 0 0 Z " fill="#23211E" transform="translate(285.2734375,284.83203125)"/>
<path d="M0 0 C0.33 0 0.66 0 1 0 C0.93941406 0.73476563 0.87882813 1.46953125 0.81640625 2.2265625 C-0.24712748 16.46155246 -0.56948173 30.73475633 -1 45 C-1.33 45 -1.66 45 -2 45 C-2.06058594 44.16855469 -2.12117187 43.33710938 -2.18359375 42.48046875 C-2.30927734 40.85044922 -2.30927734 40.85044922 -2.4375 39.1875 C-2.51871094 38.10855469 -2.59992187 37.02960938 -2.68359375 35.91796875 C-2.90212461 32.94010095 -2.90212461 32.94010095 -4 30 C-5.18416523 7.77624785 -5.18416523 7.77624785 0 0 Z " fill="#F8F1E7" transform="translate(14,273)"/>
<path d="M0 0 C1.485 0.99 1.485 0.99 3 2 C3.35644531 4.87329102 3.35644531 4.87329102 3.328125 8.50390625 C3.32296875 9.80134766 3.3178125 11.09878906 3.3125 12.43554688 C3.3021875 13.11222412 3.291875 13.78890137 3.28125 14.48608398 C3.25006828 16.55796282 3.24027769 18.62908158 3.234375 20.70117188 C3.15365758 30.84634242 3.15365758 30.84634242 2 32 C1.63239269 34.32817964 1.29758419 36.6618385 1 39 C0.67 39 0.34 39 0 39 C0 26.13 0 13.26 0 0 Z " fill="#D4CCC5" transform="translate(583,287)"/>
<path d="M0 0 C0.65062912 0.02265427 1.30125824 0.04530853 1.97160339 0.06864929 C4.05839153 0.14405287 6.14426531 0.23420673 8.23046875 0.32421875 C9.59176407 0.37395309 10.9530925 0.42278977 12.31445312 0.47070312 C21.03169868 0.79289547 29.72072046 1.33300467 38.41796875 2.01171875 C38.41796875 2.34171875 38.41796875 2.67171875 38.41796875 3.01171875 C13.17296875 3.50671875 13.17296875 3.50671875 -12.58203125 4.01171875 C-7.75642465 0.79464768 -5.82807474 -0.22456513 0 0 Z " fill="#D9D2CA" transform="translate(277.58203125,24.98828125)"/>
<path d="M0 0 C1.24819519 0.00848969 1.24819519 0.00848969 2.52160645 0.01715088 C5.1504341 0.03934316 7.77784217 0.08950367 10.40625 0.140625 C12.20050099 0.16071232 13.99477359 0.17895916 15.7890625 0.1953125 C20.16199602 0.23915117 24.53388328 0.30805561 28.90625 0.390625 C28.90625 0.720625 28.90625 1.050625 28.90625 1.390625 C28.03000977 1.40520752 27.15376953 1.41979004 26.25097656 1.43481445 C22.94051559 1.49656376 19.63079279 1.57083335 16.32080078 1.65307617 C14.8993556 1.68594288 13.47779186 1.71408823 12.05615234 1.73706055 C3.81992721 1.87365285 -3.79562771 2.43545002 -11.74707031 4.85620117 C-14.09375 5.390625 -14.09375 5.390625 -17.09375 4.390625 C-11.09250516 0.93572508 -6.87186529 -0.17960278 0 0 Z " fill="#E2DCD3" transform="translate(280.09375,283.609375)"/>
<path d="M0 0 C4.48410364 4.15133157 7.85035049 8.79385556 11.3125 13.8125 C12.13717773 14.99489258 12.13717773 14.99489258 12.97851562 16.20117188 C14.32356086 18.13101938 15.66388807 20.06396201 17 22 C16.67 22.66 16.34 23.32 16 24 C8.63439895 17.53630928 3.99104317 10.94455656 0 2 C0 1.34 0 0.68 0 0 Z " fill="#EDE6DD" transform="translate(488,158)"/>
<path d="M0 0 C2.06103322 1.54577492 2.8018738 2.94218451 3.75 5.3125 C2.7496875 4.99539063 1.749375 4.67828125 0.71875 4.3515625 C-5.96964235 2.67946441 -12.89498875 2.84205169 -19.75 2.6875 C-21.15887638 2.64924703 -22.5677312 2.61019125 -23.9765625 2.5703125 C-27.40091327 2.47649467 -30.82526508 2.39079784 -34.25 2.3125 C-34.25 1.9825 -34.25 1.6525 -34.25 1.3125 C-33.49380371 1.28744385 -32.73760742 1.2623877 -31.95849609 1.23657227 C-28.51384541 1.12013114 -25.06943592 0.99762338 -21.625 0.875 C-19.84029297 0.81602539 -19.84029297 0.81602539 -18.01953125 0.75585938 C-16.86582031 0.71396484 -15.71210938 0.67207031 -14.5234375 0.62890625 C-13.46560059 0.59224854 -12.40776367 0.55559082 -11.31787109 0.51782227 C-8.20620902 0.36316822 -8.20620902 0.36316822 -4.99853516 -0.25024414 C-2.25 -0.6875 -2.25 -0.6875 0 0 Z " fill="#D8D1C9" transform="translate(426.25,672.6875)"/>
<path d="M0 0 C2.3098458 2.3098458 2.55021689 3.51537315 3.2890625 6.6484375 C3.50820312 7.57140625 3.72734375 8.494375 3.953125 9.4453125 C4.17484375 10.41210938 4.3965625 11.37890625 4.625 12.375 C4.85445312 13.3340625 5.08390625 14.293125 5.3203125 15.28125 C6.2707763 19.34335123 7 22.80130204 7 27 C6.34 27 5.68 27 5 27 C1.34398787 17.86847203 0.26599657 9.73547444 0 0 Z " fill="#ECE5DB" transform="translate(135,579)"/>
<path d="M0 0 C2.41551808 4.83103616 2.00880431 7.85913097 1.6796875 13.125 C1.75603579 16.10473915 1.75603579 16.10473915 3.8046875 18.296875 C6.40769422 20.31628946 8.8392952 21.1379896 12 22 C12 22.33 12 22.66 12 23 C8.04 23 4.08 23 0 23 C0 15.41 0 7.82 0 0 Z " fill="#F9F2E8" transform="translate(355,581)"/>
<path d="M0 0 C0.66 0.33 1.32 0.66 2 1 C1.95359375 1.7734375 1.9071875 2.546875 1.859375 3.34375 C1.556202 12.09245648 3.24574873 16.8686231 8 24 C4.29570676 22.62411965 1.46848532 21.08109119 -2 19 C-1.34 12.73 -0.68 6.46 0 0 Z " fill="#E5DFD6" transform="translate(170,759)"/>
<path d="M0 0 C1.12670431 3.38011294 0.84431821 4.50457306 0.00390625 7.88671875 C-0.33930664 9.2934082 -0.33930664 9.2934082 -0.68945312 10.72851562 C-0.93630859 11.70498047 -1.18316406 12.68144531 -1.4375 13.6875 C-1.68048828 14.67556641 -1.92347656 15.66363281 -2.17382812 16.68164062 C-2.77531863 19.12298445 -3.38430006 21.56220809 -4 24 C-4.33 24 -4.66 24 -5 24 C-6.85882283 17.84264936 -7.61195151 14.80331721 -4.625 9.0625 C-4.18414063 8.20785156 -3.74328125 7.35320312 -3.2890625 6.47265625 C-2.86367188 5.65667969 -2.43828125 4.84070313 -2 4 C-1.33063928 2.6680171 -0.66294662 1.33518688 0 0 Z " fill="#EAE3D9" transform="translate(23,229)"/>
<path d="M0 0 C0 0.66 0 1.32 0 2 C-1.03898437 1.86722656 -2.07796875 1.73445313 -3.1484375 1.59765625 C-10.75719945 0.63195686 -18.36091435 -0.30219891 -26 -1 C-26 -1.33 -26 -1.66 -26 -2 C-17.62807684 -3.79398353 -7.82639285 -3.61786085 0 0 Z " fill="#E0DAD1" transform="translate(349,30)"/>
<path d="M0 0 C0.66 0 1.32 0 2 0 C3.2172181 3.90524142 3.30042026 7.8830745 3.5 11.9375 C3.71977788 16.37782722 4.10281941 20.64014724 5 25 C5.06371368 26.60303627 5.08644214 28.20837672 5.0625 29.8125 C5.05347656 30.60269531 5.04445313 31.39289063 5.03515625 32.20703125 C5.01775391 33.09455078 5.01775391 33.09455078 5 34 C-0.41254508 24.66958756 0.52324862 10.60266937 0 0 Z " fill="#E9E3D9" transform="translate(56,320)"/>
<path d="M0 0 C3.85329434 4.95423558 6.32814653 9.50279537 8.0625 15.5625 C9.32712572 20.01999743 9.32712572 20.01999743 11.14453125 24.26171875 C12 26 12 26 11.625 28.25 C11.41875 28.8275 11.2125 29.405 11 30 C9.24266727 27.36400091 8.34346491 25.42199419 7.34375 22.47265625 C7.04339844 21.59802734 6.74304688 20.72339844 6.43359375 19.82226562 C6.12550781 18.91154297 5.81742188 18.00082031 5.5 17.0625 C4.88792998 15.26086294 4.27343164 13.46004864 3.65625 11.66015625 C3.38619141 10.86230713 3.11613281 10.06445801 2.83789062 9.24243164 C2.0467474 6.98242868 2.0467474 6.98242868 0.89648438 4.89624023 C0 3 0 3 0 0 Z " fill="#ECE6DC" transform="translate(166,537)"/>
<path d="M0 0 C-4.29 3.63 -8.58 7.26 -13 11 C-14 8 -14 8 -13.125 5 C-10.47336189 1.2565109 -8.3320498 0.63179822 -4.05859375 -0.65234375 C-2 -1 -2 -1 0 0 Z " fill="#F0E9E0" transform="translate(129,82)"/>
<path d="M0 0 C2.26979665 -0.10794277 4.54105196 -0.18556176 6.8125 -0.25 C8.07707031 -0.29640625 9.34164063 -0.3428125 10.64453125 -0.390625 C14 0 14 0 15.94921875 1.890625 C17 4 17 4 17 6 C5.47835991 2.92482916 5.47835991 2.92482916 0 1 C0 0.67 0 0.34 0 0 Z " fill="#E1DAD1" transform="translate(388,41)"/>
<path d="M0 0 C-0.58007812 0.37511719 -1.16015625 0.75023437 -1.7578125 1.13671875 C-6.42252812 4.19264631 -10.79645604 7.33537193 -15 11 C-15.66 10.67 -16.32 10.34 -17 10 C-7.43838001 -2.46863267 -7.43838001 -2.46863267 0 0 Z " fill="#EDE6DC" transform="translate(237,300)"/>
<path d="M0 0 C6.13525632 2.41027927 9.18269995 8.36539991 12 14 C11.67 14.99 11.34 15.98 11 17 C9.16291774 14.35675132 7.33097086 11.70998489 5.5 9.0625 C4.97535156 8.30775391 4.45070313 7.55300781 3.91015625 6.77539062 C3.41386719 6.05673828 2.91757813 5.33808594 2.40625 4.59765625 C1.94541016 3.93258057 1.48457031 3.26750488 1.00976562 2.58227539 C0 1 0 1 0 0 Z " fill="#ECE5DC" transform="translate(105,440)"/>
<path d="M0 0 C-1.00160156 0.53109375 -2.00320312 1.0621875 -3.03515625 1.609375 C-4.37763436 2.32285987 -5.72008057 3.03640475 -7.0625 3.75 C-7.71927734 4.09804687 -8.37605469 4.44609375 -9.05273438 4.8046875 C-13.41562062 7.12582895 -17.72017428 9.52894328 -22 12 C-20.66705377 8.00116132 -18.14807925 6.9627467 -14.6875 4.9375 C-14.10548828 4.58623047 -13.52347656 4.23496094 -12.92382812 3.87304688 C-11.29372772 2.89646351 -9.64727177 1.94733212 -8 1 C-6.92685547 0.35224609 -6.92685547 0.35224609 -5.83203125 -0.30859375 C-3.52663115 -1.1786488 -2.28300581 -0.81535922 0 0 Z " fill="#E9E2D9" transform="translate(162,62)"/>
<path d="M0 0 C0.33 0 0.66 0 1 0 C1 8.25 1 16.5 1 25 C-1.31 25 -3.62 25 -6 25 C-3 23 -3 23 -1 23 C-1.00523682 22.3387915 -1.01047363 21.67758301 -1.01586914 20.99633789 C-1.03657656 18.01840149 -1.04964012 15.04048018 -1.0625 12.0625 C-1.07087891 11.02158203 -1.07925781 9.98066406 -1.08789062 8.90820312 C-1.09111328 7.91884766 -1.09433594 6.92949219 -1.09765625 5.91015625 C-1.10289307 4.99371338 -1.10812988 4.07727051 -1.11352539 3.13305664 C-1 1 -1 1 0 0 Z " fill="#DEDBD6" transform="translate(313,579)"/>
<path d="M0 0 C0.99 0.495 0.99 0.495 2 1 C2.41064453 2.94946289 2.41064453 2.94946289 2.6328125 5.47265625 C2.71660156 6.37177734 2.80039063 7.27089844 2.88671875 8.19726562 C2.96535156 9.14279297 3.04398438 10.08832031 3.125 11.0625 C3.21136719 12.01189453 3.29773438 12.96128906 3.38671875 13.93945312 C3.59954368 16.29235092 3.80357031 18.64568595 4 21 C3.01 21 2.02 21 1 21 C0.67 14.07 0.34 7.14 0 0 Z " fill="#E0DBD5" transform="translate(142,609)"/>
<path d="M0 0 C1.98 0.99 1.98 0.99 4 2 C4.05423638 3.91635217 4.09289963 5.83314925 4.125 7.75 C4.14820313 8.81734375 4.17140625 9.8846875 4.1953125 10.984375 C4 14 4 14 2 18 C1.34 12.06 0.68 6.12 0 0 Z " fill="#EAE3DA" transform="translate(579,249)"/>
<path d="M0 0 C1.40764055 4.22292165 -0.26132181 7.10226854 -1.8125 11.0625 C-2.08642578 11.79533203 -2.36035156 12.52816406 -2.64257812 13.28320312 C-4.72719029 18.72719029 -4.72719029 18.72719029 -7 21 C-6.48533805 13.45162479 -3.3563698 6.7127396 0 0 Z " fill="#E4DED5" transform="translate(357,372)"/>
<path d="M0 0 C0.66 0.33 1.32 0.66 2 1 C0.54420484 3.12677894 -0.91450225 5.2514542 -2.375 7.375 C-2.7875 7.97828125 -3.2 8.5815625 -3.625 9.203125 C-5.3022395 11.63782751 -6.90467771 13.90467771 -9 16 C-8.5384165 11.00317547 -7.17221576 8.4245074 -3.9375 4.625 C-3.20402344 3.75101562 -2.47054688 2.87703125 -1.71484375 1.9765625 C-1.14894531 1.32429688 -0.58304687 0.67203125 0 0 Z " fill="#E8E2D8" transform="translate(468,473)"/>
<path d="M0 0 C4.9962796 4.16356634 7.04953742 8.84351198 9 15 C9 15.66 9 16.32 9 17 C8.01 16.67 7.02 16.34 6 16 C4.90234375 13.671875 4.90234375 13.671875 3.9375 10.75 C2.71594932 7.11968875 1.45517888 3.54416901 0 0 Z " fill="#E3DDD3" transform="translate(350,343)"/>
<path d="M0 0 C2.29158942 2.89818662 4.07862366 5.83140544 5.75 9.125 C6.19859375 9.99382812 6.6471875 10.86265625 7.109375 11.7578125 C7.40328125 12.49773437 7.6971875 13.23765625 8 14 C7.67 14.66 7.34 15.32 7 16 C2.39759173 10.91312771 0 7.10382396 0 0 Z " fill="#EFE8DE" transform="translate(516,201)"/>
<path d="M0 0 C0.33 0.66 0.66 1.32 1 2 C-3.46153846 8.92307692 -3.46153846 8.92307692 -6 11 C-6.66 11 -7.32 11 -8 11 C-6.46457536 6.52167812 -4.39145948 2.19572974 0 0 Z " fill="#F0E9DF" transform="translate(516,480)"/>
<path d="M0 0 C1.875 1.5 1.875 1.5 3 3 C-1.51718381 4.36884358 -4.58774263 3.47075246 -9 2 C-5.53076119 -0.31282587 -4.07794425 -0.42478586 0 0 Z " fill="#262220" transform="translate(275,848)"/>
<path d="M0 0 C2.24606427 1.77444972 2.95081002 2.58352485 3.29296875 5.48046875 C3.25816406 6.37378906 3.22335937 7.26710938 3.1875 8.1875 C3.16042969 9.08855469 3.13335938 9.98960937 3.10546875 10.91796875 C3.07066406 11.60503906 3.03585937 12.29210937 3 13 C0.75393573 11.22555028 0.04918998 10.41647515 -0.29296875 7.51953125 C-0.25816406 6.62621094 -0.22335937 5.73289062 -0.1875 4.8125 C-0.16042969 3.91144531 -0.13335938 3.01039063 -0.10546875 2.08203125 C-0.07066406 1.39496094 -0.03585937 0.70789063 0 0 Z " fill="#2A2724" transform="translate(541,279)"/>
<path d="M0 0 C5.28 0 10.56 0 16 0 C16.33 0.99 16.66 1.98 17 3 C11.39 2.34 5.78 1.68 0 1 C0 0.67 0 0.34 0 0 Z " fill="#D4CEC5" transform="translate(315,286)"/>
<path d="M0 0 C1.36278399 4.08835197 0.44505442 7.01364298 -1 11 C-2.625 13 -2.625 13 -4 14 C-4.33 13.34 -4.66 12.68 -5 12 C-4.26821134 9.92803369 -3.44100997 7.8891448 -2.5625 5.875 C-2.08941406 4.77929688 -1.61632812 3.68359375 -1.12890625 2.5546875 C-0.75636719 1.71164063 -0.38382812 0.86859375 0 0 Z " fill="#E7E1D7" transform="translate(75,212)"/>
<path d="M0 0 C1.81248985 3.6249797 2.31888915 5.37259584 2.625 9.25 C2.69976563 10.14203125 2.77453125 11.0340625 2.8515625 11.953125 C2.92503906 12.96632813 2.92503906 12.96632813 3 14 C2.01 13.67 1.02 13.34 0 13 C0 8.71 0 4.42 0 0 Z " fill="#D9D2CA" transform="translate(538,264)"/>
<path d="M0 0 C1.28132813 0.19464844 2.56265625 0.38929687 3.8828125 0.58984375 C4.87023437 0.74582031 5.85765625 0.90179687 6.875 1.0625 C6.875 1.3925 6.875 1.7225 6.875 2.0625 C4.58358714 2.11634521 2.29181812 2.15522087 0 2.1875 C-1.91425781 2.22230469 -1.91425781 2.22230469 -3.8671875 2.2578125 C-7.125 2.0625 -7.125 2.0625 -9.125 0.0625 C-6.01752306 -1.49123847 -3.38273473 -0.52278628 0 0 Z " fill="#F9F2E8" transform="translate(323.125,25.9375)"/>
<path d="M0 0 C0.66 0 1.32 0 2 0 C0.50829734 4.9723422 -1.60457417 9.41845739 -4 14 C-5.2277183 10.31684509 -4.6026666 9.37044582 -3.125 5.875 C-2.75632812 4.98554688 -2.38765625 4.09609375 -2.0078125 3.1796875 C-1 1 -1 1 0 0 Z " fill="#EAE3DA" transform="translate(523,383)"/>
<path d="M0 0 C0.66 0.66 1.32 1.32 2 2 C1.9765625 4.1640625 1.9765625 4.1640625 1.625 6.625 C1.51414062 7.44226563 1.40328125 8.25953125 1.2890625 9.1015625 C1.19367188 9.72804687 1.09828125 10.35453125 1 11 C0.01 11.33 -0.98 11.66 -2 12 C-1 3.42857143 -1 3.42857143 0 0 Z " fill="#E4DDD4" transform="translate(64,242)"/>
<path d="M0 0 C0.33 0.99 0.66 1.98 1 3 C-3.95 2.67 -8.9 2.34 -14 2 C-14 1.67 -14 1.34 -14 1 C-9.27685687 0.22887459 -4.78478822 -0.09764874 0 0 Z " fill="#CFC9C1" transform="translate(337,27)"/>
<path d="M0 0 C0.33 0 0.66 0 1 0 C1 4.95 1 9.9 1 15 C-2 11 -2 11 -1.85546875 8.203125 C-1.63503906 7.22859375 -1.41460937 6.2540625 -1.1875 5.25 C-0.86845703 3.77273438 -0.86845703 3.77273438 -0.54296875 2.265625 C-0.36378906 1.51796875 -0.18460938 0.7703125 0 0 Z " fill="#FAF3E9" transform="translate(198,360)"/>
<path d="M0 0 C2.56220131 3.84330196 1.91906612 5.23190677 1.125 9.6875 C0.92132813 10.86699219 0.71765625 12.04648437 0.5078125 13.26171875 C0.34023438 14.16535156 0.17265625 15.06898438 0 16 C-0.33 16 -0.66 16 -1 16 C-1.02712153 14.083412 -1.04645097 12.1667127 -1.0625 10.25 C-1.07410156 9.18265625 -1.08570313 8.1153125 -1.09765625 7.015625 C-1.01510087 4.46631499 -0.74617558 2.42066409 0 0 Z " fill="#E7E1DB" transform="translate(57,280)"/>
<path d="M0 0 C0.66 0 1.32 0 2 0 C2.33 3.63 2.66 7.26 3 11 C2.67 10.34 2.34 9.68 2 9 C1.01 9 0.02 9 -1 9 C-0.67 6.03 -0.34 3.06 0 0 Z " fill="#33302D" transform="translate(578,251)"/>
<path d="M0 0 C2.29013653 3.4352048 2.17842973 4.985331 2 9 C1.01 9 0.02 9 -1 9 C-1.09765625 2.84765625 -1.09765625 2.84765625 -1 1 C-0.67 0.67 -0.34 0.34 0 0 Z " fill="#2B2926" transform="translate(56,327)"/>
<path d="M0 0 C3.40312738 1.05875074 6.01353231 2.00902154 9 4 C9 4.66 9 5.32 9 6 C5.08788267 4.84414715 2.1254959 3.64465038 -1 1 C-0.67 0.67 -0.34 0.34 0 0 Z " fill="#E6E0D6" transform="translate(419,51)"/>
<path d="M0 0 C0.33 0 0.66 0 1 0 C1.375 2.25 1.375 2.25 1 5 C-2 7.3125 -2 7.3125 -5 9 C-3.50164236 5.88802644 -1.86022073 2.91164984 0 0 Z " fill="#C8C7C3" transform="translate(451,629)"/>
<path d="M0 0 C1.32 0.33 2.64 0.66 4 1 C1.03 2.65 -1.94 4.3 -5 6 C-3 2 -3 2 0 0 Z " fill="#E6E0D6" transform="translate(233,299)"/>
<path d="M0 0 C1.88343932 3.76687864 2.22057835 5.02958963 2 9 C1.01 9.33 0.02 9.66 -1 10 C-0.67 6.7 -0.34 3.4 0 0 Z " fill="#DAD3CA" transform="translate(453,619)"/>
<path d="M0 0 C0.99 0.33 1.98 0.66 3 1 C1.68 3.31 0.36 5.62 -1 8 C-1.93065133 5.39417629 -2.14917407 4.35801776 -1.0625 1.75 C-0.711875 1.1725 -0.36125 0.595 0 0 Z " fill="#E7E1D7" transform="translate(499,426)"/>
<path d="M0 0 C0.66 0 1.32 0 2 0 C3.03039555 4.53374042 3.17766075 5.64467851 1 10 C0.67 6.7 0.34 3.4 0 0 Z " fill="#DBD6D0" transform="translate(56,320)"/>
</svg>
